<?xml version="1.0" encoding="UTF-8"?>
<!DOCTYPE svg PUBLIC "-//W3C//DTD SVG 1.1//EN" "http://www.w3.org/Graphics/SVG/1.1/DTD/svg11.dtd">
<!-- Creator: CorelDRAW 2020 (64-Bit) -->
<svg xmlns="http://www.w3.org/2000/svg" xml:space="preserve" width="242.711mm" height="39.116mm" version="1.1" style="shape-rendering:geometricPrecision; text-rendering:geometricPrecision; image-rendering:optimizeQuality; fill-rule:evenodd; clip-rule:evenodd"
viewBox="0 0 24271.1 3911.6"
 xmlns:xlink="http://www.w3.org/1999/xlink"
 xmlns:xodm="http://www.corel.com/coreldraw/odm/2003">
 <defs>
  <style type="text/css">
   <![CDATA[
    .fil0 {fill:#00A190}
    .fil1 {fill:#1C1C1C;fill-rule:nonzero}
   ]]>
  </style>
 </defs>
 <g id="Layer_x0020_1">
  <metadata id="CorelCorpID_0Corel-Layer"/>
  <g id="_2287900193456">
   <path class="fil0" d="M1955.92 19.68c265.46,0 518.51,52.99 749.3,148.79 -222.1,16.36 -439.61,109.41 -609.47,279.2l0 -0.06 -438.53 438.53c191.2,-14.37 385.05,14.37 565.78,85.95l198.5 -198.5c195.67,-195.66 513.95,-195.66 709.62,0 195.67,195.67 195.67,513.95 0,709.61l-644.49 644.5c-196.29,196.29 -515.02,194.65 -709.62,0 -45.38,-45.38 -84.42,-101.8 -108.87,-157.35l-336.27 336.1c35.31,53.57 72.03,99.87 119.16,147 121.55,121.54 276.36,212.13 454.55,255.14 230.86,55.57 478.18,24.84 690.6,-92.35 77.58,-42.83 150.46,-97.04 216.2,-162.73l644.37 -644.49c177.86,-177.8 271.55,-407.83 281.19,-640.69 111.65,246.09 173.86,519.4 173.86,807.24 0,1080.2 -875.68,1955.88 -1955.88,1955.88 -287.46,0 -560.43,-62.04 -806.28,-173.42 232.49,-9.88 462.08,-103.52 639.6,-281.04l438.53 -438.52c-191.38,14.27 -385.06,-14.37 -565.78,-86.06l-198.68 198.67c-195.67,195.66 -513.95,195.66 -709.62,0 -195.66,-195.67 -195.66,-513.96 0,-709.62l644.38 -644.67c69.65,-69.6 154.82,-114.35 244.5,-134.43 238.16,-53.31 477.57,71.85 573.98,291.8l336.29 -336.11c-277.89,-421.27 -832.07,-547.96 -1264.32,-309.75 -77.58,42.83 -150.45,96.99 -216.21,162.74l-0.05 -0.05 -644.37 644.65c-169.66,169.66 -262.73,386.89 -279.26,608.74 -95.68,-230.66 -148.59,-483.54 -148.59,-748.81 0,-1080.21 875.68,-1955.89 1955.88,-1955.89z"/>
   <polygon class="fil1" points="7294.27,528.31 6479.67,2012.79 5669.2,528.31 4957.97,528.31 4957.97,3381.49 5528.61,3381.49 5528.61,1421.48 6314.27,2868.75 6636.8,2868.75 7426.59,1421.48 7426.59,3381.49 7997.23,3381.49 7997.23,528.31 "/>
   <path id="1" class="fil1" d="M10455.09 2331.19c0,-636.8 -475.53,-1108.19 -1108.19,-1108.19 -636.79,0 -1120.59,471.39 -1120.59,1095.78 0,632.67 500.34,1112.33 1170.21,1112.33 396.97,0 736.04,-161.27 955.2,-421.77l-359.75 -314.27c-111.65,140.59 -322.53,260.51 -578.91,260.51 -305.99,0 -529.28,-169.54 -603.71,-434.18l1633.34 0c8.27,-57.89 12.4,-132.32 12.4,-190.21zm-1112.32 -636.8c260.5,0 471.39,169.54 537.55,434.18l-1075.11 0c66.16,-260.5 272.91,-434.18 537.56,-434.18z"/>
   <path id="2" class="fil1" d="M11593.88 3431.11c591.31,0 984.14,-351.48 984.14,-889.03l0 -1269.46 -537.55 0 0 1195.03c0,268.77 -177.81,442.45 -446.59,442.45 -268.78,0 -446.58,-173.68 -446.58,-442.45l0 -1195.03 -537.56 0 0 1269.46c0,537.55 388.7,889.03 984.14,889.03z"/>
   <path id="3" class="fil1" d="M13596.89 3431.11c504.47,0 901.44,-243.97 901.44,-690.55 0,-479.67 -434.18,-583.04 -769.12,-657.47 -235.7,-49.62 -413.5,-95.11 -413.5,-235.7 0,-124.05 148.86,-181.94 330.8,-181.94 215.02,0 392.83,78.56 545.83,194.35l260.5 -359.75c-190.21,-148.86 -458.99,-277.05 -818.74,-277.05 -467.25,0 -860.08,219.16 -860.08,665.74 0,479.67 434.18,583.04 769.11,657.47 231.57,53.76 413.51,103.38 413.51,243.97 0,128.19 -157.13,198.48 -372.16,198.48 -252.23,0 -454.85,-95.1 -616.12,-235.7l-260.5 355.62c202.61,173.67 496.2,322.53 889.03,322.53z"/>
   <polygon id="4" class="fil1" points="16027.46,2843.93 16027.46,528.31 15456.82,528.31 15456.82,3381.49 17272.11,3381.49 17272.11,2843.93 "/>
   <path id="5" class="fil1" d="M17707.94 962.49c190.21,0 339.07,-144.72 339.07,-334.94 0,-190.21 -148.86,-334.93 -339.07,-334.93 -190.21,0 -339.07,144.72 -339.07,334.93 0,190.22 148.86,334.94 339.07,334.94zm-268.78 2419l537.56 0 0 -2108.87 -537.56 0 0 2108.87z"/>
   <path id="6" class="fil1" d="M19508.33 1223c-272.91,0 -504.47,99.24 -669.87,285.32l0 -235.7 -537.56 0 0 2108.87 537.56 0 0 -1157.81c0,-289.45 198.48,-479.67 492.07,-479.67 281.18,0 463.12,186.08 463.12,471.4l0 1166.08 537.56 0 0 -1339.75c0,-496.21 -326.67,-818.74 -822.88,-818.74z"/>
   <polygon id="7" class="fil1" points="21957.93,3381.49 22660.89,3381.49 21726.37,2248.49 22631.94,1272.62 21937.26,1272.62 21159.87,2136.84 21159.87,404.26 20622.31,404.26 20622.31,3381.49 21159.87,3381.49 21159.87,2856.34 21345.94,2653.72 "/>
   <path id="8" class="fil1" d="M23369.63 3431.11c504.47,0 901.44,-243.97 901.44,-690.55 0,-479.67 -434.18,-583.04 -769.12,-657.47 -235.7,-49.62 -413.5,-95.11 -413.5,-235.7 0,-124.05 148.86,-181.94 330.8,-181.94 215.02,0 392.83,78.56 545.83,194.35l260.5 -359.75c-190.21,-148.86 -458.99,-277.05 -818.74,-277.05 -467.25,0 -860.08,219.16 -860.08,665.74 0,479.67 434.18,583.04 769.11,657.47 231.57,53.76 413.51,103.38 413.51,243.97 0,128.19 -157.13,198.48 -372.16,198.48 -252.23,0 -454.85,-95.1 -616.12,-235.7l-260.5 355.62c202.61,173.67 496.2,322.53 889.03,322.53z"/>
  </g>
 </g>
</svg>
